<?xml version="1.0" encoding="UTF-8"?><svg id="Laag_1" xmlns="http://www.w3.org/2000/svg" viewBox="0 0 283.46 283.46"><defs><style>.cls-1{fill:#fff;}</style></defs><path class="cls-1" d="M128.25,99.04s-7.78-35.15-32.88-64.79c-4.04-4.77-3.41-11.94,1.53-15.76,14.61-11.29,46.71-28.98,98.95-8.92,38.65,14.83,63,81.76,3.07,129.58,0,0-8.45-53.22-70.69-40.11Z"/><path class="cls-1" d="M200.53,167.1s32.64,14.94,71.32,12.68c6.23-.36,11.55,4.46,11.61,10.72,.18,18.5-5.09,54.88-52.5,84.67-35.07,22.04-102.96,1.24-104.89-75.59,0,0,47.41,25.28,74.47-32.49Z"/><path class="cls-1" d="M111.82,193.74s-26.2,24.6-38.86,61.36c-2.04,5.92-8.51,9.01-14.3,6.68-17.11-6.89-48.6-25.64-57.96-81.01-6.92-40.95,38.1-96.03,109.59-68.53,0,0-41.36,34.36,1.53,81.5Z"/><ellipse class="cls-1" cx="146.69" cy="151.49" rx="39.95" ry="40.11"/></svg>