<svg width="284" height="284" viewBox="0 0 284 284" fill="none" xmlns="http://www.w3.org/2000/svg">
<g clip-path="url(#clip0_394_2)">
<path d="M128.25 99.04C128.25 99.04 120.47 63.89 95.3699 34.25C91.3299 29.48 91.9599 22.31 96.8999 18.49C111.51 7.19995 143.61 -10.49 195.85 9.56995C234.5 24.4 258.85 91.3299 198.92 139.15C198.92 139.15 190.47 85.93 128.23 99.04H128.25Z" fill="#290571"/>
<path d="M200.53 167.1C200.53 167.1 233.17 182.04 271.85 179.78C278.08 179.42 283.4 184.24 283.46 190.5C283.64 209 278.37 245.38 230.96 275.17C195.89 297.21 128 276.41 126.07 199.58C126.07 199.58 173.48 224.86 200.54 167.09L200.53 167.1Z" fill="#1FC614"/>
<path d="M111.82 193.74C111.82 193.74 85.6199 218.34 72.9599 255.1C70.9199 261.02 64.4499 264.11 58.6599 261.78C41.5499 254.89 10.0599 236.14 0.699919 180.77C-6.22008 139.82 38.7999 84.7399 110.29 112.24C110.29 112.24 68.9299 146.6 111.82 193.74Z" fill="#FF1009"/>
<path d="M146.69 191.6C168.754 191.6 186.64 173.642 186.64 151.49C186.64 129.338 168.754 111.38 146.69 111.38C124.626 111.38 106.74 129.338 106.74 151.49C106.74 173.642 124.626 191.6 146.69 191.6Z" fill="#290571"/>
</g>
<defs>
<clipPath id="clip0_394_2">
<rect width="283.46" height="283.46" fill="white"/>
</clipPath>
</defs>
</svg>
